<svg id="Capa_1" enable-background="new 0 0 512 512" height="512" viewBox="0 0 512 512" width="512" xmlns="http://www.w3.org/2000/svg"><g><path d="m382.936 214.744 36.257 18.917c38.122 19.89 61.805 58.957 61.805 101.957v161.382c0 8.284-6.716 15-15 15h-192.542c-8.284 0-15-6.716-15-15v-54.481c-12.472-10.288-21.741-24.13-26.459-39.706z" fill="#ffddce"/><path d="m382.936 214.744 36.257 18.917c38.122 19.89 61.805 58.957 61.805 101.957v161.382c0 8.284-6.716 15-15 15h-192.542c-8.284 0-15-6.716-15-15v-54.481c-12.472-10.288-21.741-24.13-26.459-39.706z" fill="#ffddce"/><path d="m419.193 233.661-36.257-18.917-126.939 158.165v67.494c.806.72 1.624 1.427 2.459 2.116v54.481c0 8.284 6.716 15 15 15h192.541c8.284 0 15-6.716 15-15v-161.382c0-43-23.682-82.067-61.804-101.957z" fill="#ffcbbc"/><path d="m356.521 482.634c-3.839 0-7.678-1.465-10.606-4.394-20.732-20.731-29.154-50.972-22.686-79.253l-48.025-48.026c-5.858-5.857-5.858-15.355 0-21.213 5.857-5.857 15.355-5.857 21.213 0l54.278 54.278c4.09 4.09 5.464 10.167 3.531 15.618-7.071 19.949-2.008 42.474 12.901 57.383 5.858 5.857 5.858 15.355 0 21.213-2.928 2.929-6.767 4.394-10.606 4.394z" fill="#ffbca7"/><path d="m363.147 369.197-169.145 61.563c-23.317 8.487-49.19-3.578-57.677-26.895l-102.606-281.908c-8.487-23.317 3.578-49.19 26.895-57.677l169.145-61.563c23.317-8.487 49.19 3.578 57.677 26.895l102.606 281.908c8.487 23.317-3.578 49.19-26.895 57.677z" fill="#e2dff4"/><path d="m287.436 29.612c-5.307-14.58-17.412-24.76-31.439-28.268v406.852l107.15-38.999c23.317-8.487 35.382-34.36 26.895-57.677z" fill="#bebcdd"/><g><path d="m345.997 390h-180c-24.813 0-45-20.187-45-45v-300c0-24.813 20.187-45 45-45h180c24.813 0 45 20.187 45 45v300c0 24.813-20.186 45-45 45z" fill="#f9f9f9"/></g><g><path d="m345.997 0h-90v390h90c24.813 0 45-20.187 45-45v-300c0-24.813-20.186-45-45-45z" fill="#e2dff4"/></g><g><path d="m256.101 262.963c-3.839 0-7.678-1.465-10.606-4.394l-50.406-50.406c-.061-.06-.12-.12-.179-.182-21.307-22.043-15.874-50.154.505-66.531 14.964-14.962 39.725-20.788 60.696-5.433 7.508-5.09 16.241-8.119 25.335-8.631 13.519-.771 26.2 4.136 35.713 13.786 8.924 8.947 13.839 20.832 13.839 33.473 0 12.661-4.931 24.564-13.884 33.518l-50.406 50.406c-2.929 2.929-6.768 4.394-10.607 4.394z" fill="#ff8659"/></g><g><path d="m317.159 141.173c-9.513-9.65-22.194-14.558-35.713-13.786-9.094.512-17.827 3.541-25.335 8.631-.038-.028-.076-.052-.113-.079v127.019c.035 0 .069.005.104.005 3.839 0 7.678-1.465 10.606-4.394l50.406-50.406c8.953-8.953 13.884-20.856 13.884-33.518-.001-12.64-4.916-24.525-13.839-33.472z" fill="#ff4a4a"/></g><g><path d="m180.997 100c-8.284 0-15-6.716-15-15v-25c0-8.284 6.716-15 15-15s15 6.716 15 15v25c0 8.284-6.715 15-15 15z" fill="#ff8659"/></g><path d="m367.127 457.028c-15.471-15.471-19.781-37.94-12.929-57.31 1.938-5.478.61-11.577-3.499-15.686l-54.283-54.283c-13.668-13.668-13.668-35.829 0-49.497 13.668-13.668 35.829-13.668 49.497 0l70.711 70.711" fill="#ffcbbc"/></g></svg>